<svg xmlns="http://www.w3.org/2000/svg" viewBox="0 0 249.85 46.62"><defs><style>.cls-1{fill:#fff;}</style></defs><title>dashed</title><g id="Layer_2" data-name="Layer 2"><g id="Layer_1-2" data-name="Layer 1"><polygon class="cls-1" points="8.9 46.62 55.52 0 46.62 0 0 46.62 8.9 46.62"/><polygon class="cls-1" points="36.67 46.62 83.28 0 74.38 0 27.76 46.62 36.67 46.62"/><polygon class="cls-1" points="64.43 46.62 111.05 0 102.14 0 55.52 46.62 64.43 46.62"/><polygon class="cls-1" points="92.19 46.62 138.81 0 129.9 0 83.28 46.62 92.19 46.62"/><polygon class="cls-1" points="119.95 46.62 166.56 0 157.66 0 111.05 46.62 119.95 46.62"/><polygon class="cls-1" points="147.71 46.62 194.33 0 185.42 0 138.81 46.62 147.71 46.62"/><polygon class="cls-1" points="175.47 46.62 222.09 0 213.19 0 166.56 46.62 175.47 46.62"/><polygon class="cls-1" points="203.23 46.62 249.85 0 240.94 0 194.33 46.62 203.23 46.62"/></g></g></svg>
