<svg xmlns="http://www.w3.org/2000/svg" xmlns:xlink="http://www.w3.org/1999/xlink" viewBox="0 0 342.68 345.11"><defs><style>.cls-1{fill:none;}.cls-2{clip-path:url(#clip-path);}.cls-3{fill:#010101;}.cls-4{fill:#fff;}.cls-5{fill:#ea1f4a;}</style><clipPath id="clip-path"><path class="cls-1" d="M264.92,141.12A122.52,122.52,0,1,1,130.57,31.72,122.51,122.51,0,0,1,264.92,141.12Z"/></clipPath></defs><title>favicon</title><g id="Layer_2" data-name="Layer 2"><g id="Layer_1-2" data-name="Layer 1"><g class="cls-2"><path class="cls-3" d="M120.89,33.1,264.53,169.55l5.89,25.37-15.55,49.29-75,45.19-19.73-14.49L22.41,175,0,138.78s6.54-38.89,7.06-40.7,31.41-46,31.41-46L92.18,25.2,124.67,24Z"/><path class="cls-4" d="M263.35,162.52,165.91,83.18c-2.31-1.88-4.5-2.74-6.5-2.53a6.86,6.86,0,0,0-3.72,1.68l-.46.53-.5.25c-20.45,13.19-40.14,48.61-40.33,49l-.34.62-.49.51c-2.77,2.86-6.61,4.56-11.41,5h0a40.15,40.15,0,0,1-14.5-1.58l-.28-.09-.27-.12c-13.93-6.18-14-22.53-12.14-30.31l0-.18.06-.17c8.27-26.13,25.4-46.45,38.31-58.91A167.72,167.72,0,0,1,139.51,26c26.39-19.51,27.34-19.94,28-20.22l.79-.36.89-.09c1.52-.16,2.1-.22,60.16,11.75,15.27,3.15,31.05,6.4,33.54,6.82,2.83.14,4.23,2.46,4.94,3.63.45.75,1.06,1.8,1.85,3.22,1.41,2.56,3.42,6.28,6,11.06,5.64,10.61,12.63,24,17.5,33.45,6.09,11.76,12.39,24,17.3,33.66,8.28,16.25,8.29,16.35,8.42,17.64.15,1.5.18,1.81-8.33,27.84-4,12.34-8.15,24.71-8.18,24.83l-2.14,6.44Z"/><path class="cls-5" d="M169.69,10.64c2.2-.23,91.71,18.71,92.79,18.59s50.94,96.81,51,97.9-16.27,50.46-16.27,50.46L266.45,158.2,169.27,79.07c-4-3.26-7.56-4-10.4-3.7a12.07,12.07,0,0,0-7,3.28c-21.84,14.08-42.1,50.86-42.1,50.86a12.93,12.93,0,0,1-8.14,3.47,35.16,35.16,0,0,1-12.35-1.37c-13.55-6-9.13-24.2-9.13-24.2,15.36-48.51,62.35-77,62.35-77s26.12-19.31,27.18-19.79h0M168.61.07a10.81,10.81,0,0,0-3.32.89c-1.26.57-2.09.94-28.77,20.67a175.39,175.39,0,0,0-26.83,21.45A172.29,172.29,0,0,0,87.62,68.87,133.25,133.25,0,0,0,70,104.2l-.1.35-.09.35a42.51,42.51,0,0,0-.75,13.53c1.19,10.75,6.84,18.88,15.9,22.89l.54.24.56.18a45.8,45.8,0,0,0,16.64,1.8,23.31,23.31,0,0,0,14.68-6.64l1-1,.68-1.24c5.29-9.58,22.54-36.73,38.56-47.06l1.09-.7.63-.67a1.52,1.52,0,0,1,.62-.28,4.92,4.92,0,0,1,2.61,1.37l97.18,79.14.5.41.55.34,30.81,19.39,11.48,7.22,4.26-12.86c.05-.13,4.16-12.5,8.2-24.86,2.38-7.27,4.27-13.12,5.63-17.38,2.83-8.93,3.2-10.07,2.93-12.65-.22-2.13-.67-3-3.24-8.19-1.37-2.75-3.3-6.56-5.73-11.32-4.91-9.64-11.22-21.92-17.32-33.69-4.87-9.41-11.87-22.87-17.52-33.5-2.56-4.82-4.58-8.57-6-11.15-.82-1.47-1.46-2.58-1.95-3.39-.34-.58-.64-1-.91-1.41a10.85,10.85,0,0,0-10-4.73,9.92,9.92,0,0,1,2.43,0c-2-.3-18-3.6-33.46-6.79C217.59,9.27,203.09,6.28,191.83,4,171.06-.18,170.59-.13,168.61.07Z"/><path class="cls-4" d="M7,218.46l.57-2.71c.12-.58,3.12-14.41,17.64-35.25,1.42-2.44,9.69-15.66,22.4-17,5.66-.58,11.12,1.29,16.24,5.56l.17.14.15.15c.64.62,3.77,4,3.77,10.51,0,8.56-5.5,18.32-16.34,29-1.73,1.92-12.73,18-14.48,29L35.43,248.6Z"/><path class="cls-5" d="M48.15,168.82c3.77-.38,7.92.71,12.3,4.35,0,0,9.94,9.8-12.62,32-1.68,1.65-13.94,19.16-16,31.94l-19.1-20.26s2.74-13.18,16.93-33.48c0,0,7.6-13.42,18.45-14.53m-1.08-10.57h0c-14.9,1.53-24.36,16.07-26.33,19.37-14.79,21.27-18,35.49-18.37,37l-1.14,5.43,3.81,4,19.11,20.26L39,260.11l3.38-21.36c1.42-9,10.67-23.25,13.14-26.26,11.77-11.64,17.74-22.6,17.74-32.59,0-8.37-4.1-13.06-5.35-14.29l-.32-.31-.33-.28c-7.79-6.5-15.27-7.27-20.18-6.77Z"/><path class="cls-4" d="M44.5,236.92l.57-2.71c.13-.62,3.35-15.45,19-37.86,1.27-2.16,10.33-16.7,23.82-18.08,6-.62,11.77,1.37,17.2,5.89l.17.14.15.16c.66.64,3.94,4.22,3.94,11,0,9.12-5.89,19.53-17.5,30.95C90,228.49,78,245.85,76.11,258l-1.69,10.68Z"/><path class="cls-5" d="M88.4,183.55c4.07-.41,8.55.76,13.26,4.69,0,0,10.72,10.55-13.61,34.46-1.81,1.78-15,20.66-17.19,34.42L50.27,235.3s3-14.22,18.25-36.09c0,0,8.18-14.46,19.88-15.66M87.33,173h0c-15.71,1.61-25.72,17.07-27.76,20.5-15.85,22.8-19.35,38-19.69,39.65l-1.13,5.42,3.8,4,20.59,21.83L78,280.15l3.38-21.37c.68-4.28,3.16-10.42,7-17.29a99.75,99.75,0,0,1,7.36-11.44c12.54-12.39,18.9-24,18.91-34.56,0-8.7-4.24-13.54-5.53-14.82l-.31-.31-.34-.27c-8.18-6.83-16-7.63-21.13-7.11Z"/><path class="cls-4" d="M70.83,271.47l.56-2.71c.12-.58,3.12-14.41,17.65-35.26,1.42-2.43,9.68-15.65,22.4-16.95,5.65-.58,11.12,1.29,16.24,5.56l.16.14.16.15c.63.62,3.77,4,3.77,10.51,0,8.56-5.5,18.32-16.34,29-1.73,1.94-12.73,18-14.48,29l-1.69,10.68Z"/><path class="cls-5" d="M112,221.83c3.77-.38,7.92.71,12.29,4.36,0,0,9.94,9.79-12.62,32-1.68,1.65-13.93,19.17-16,31.94L76.59,269.84s2.75-13.18,16.93-33.49c0,0,7.6-13.41,18.46-14.52m-1.08-10.57h0c-14.9,1.53-24.37,16.07-26.33,19.37-14.79,21.27-18.06,35.49-18.38,37.05l-1.13,5.42,3.8,4L88,297.39l14.85,15.73,3.37-21.36c1.42-9,10.68-23.25,13.15-26.26,11.76-11.64,17.73-22.6,17.74-32.59,0-8.37-4.09-13.06-5.35-14.3l-.32-.3-.33-.28c-7.79-6.5-15.28-7.27-20.18-6.77Z"/><path class="cls-4" d="M95.79,303.46l.56-2.71c.12-.58,3.12-14.41,17.65-35.26,1.42-2.43,9.69-15.65,22.4-17,5.66-.58,11.12,1.29,16.23,5.55l.17.14.16.16c.63.62,3.77,4,3.77,10.51,0,8.56-5.51,18.32-16.35,29-1.72,1.93-12.73,18-14.48,29l-1.68,10.69Z"/><path class="cls-5" d="M136.94,253.82c3.76-.39,7.92.71,12.29,4.36,0,0,10,9.79-12.62,32-1.68,1.66-13.93,19.17-16,31.95l-19.11-20.26s2.75-13.18,16.93-33.49c0,0,7.6-13.41,18.46-14.52m-1.08-10.57h0c-14.89,1.53-24.35,16.07-26.32,19.36-14.79,21.27-18,35.5-18.38,37.06L90,305.09l3.8,4,19.11,20.26,14.84,15.73,3.38-21.36c1.43-9,10.68-23.25,13.15-26.26C156.07,285.85,162,274.89,162,264.9c0-8.37-4.1-13.06-5.35-14.3l-.32-.3L156,250c-7.8-6.5-15.28-7.27-20.18-6.77Z"/><path class="cls-5" d="M296.3,315.68a5,5,0,0,1-7,1L150.68,212.29a5,5,0,0,1-1-7h0a5,5,0,0,1,7-1L295.31,308.74a5,5,0,0,1,1,6.94Z"/><path class="cls-5" d="M319.72,288.15a5,5,0,0,1-7,1L174.11,184.75a5,5,0,0,1-1-6.95h0a5,5,0,0,1,7-1L318.74,281.2a5,5,0,0,1,1,6.95Z"/><path class="cls-5" d="M341.68,260.77a5,5,0,0,1-6.95,1L196.07,157.37a5,5,0,0,1-1-7h0a5,5,0,0,1,6.95-1L340.7,253.82a5,5,0,0,1,1,6.95Z"/></g></g></g></svg>