<svg xmlns="http://www.w3.org/2000/svg" viewBox="0 0 127.27 127.27">
<defs>
<style>.cls-1{fill:#453163;}.cls-2{fill:#fff;}.cls-2,.cls-3{fill-rule:evenodd;}.cls-3{fill:#e8214b;}</style>
</defs>
<title>roi_ico</title>
<g id="Layer_2" data-name="Layer 2">
<g id="Layer_1-2" data-name="Layer 1">
<circle class="cls-1" cx="63.64" cy="63.64" r="63.64" transform="translate(-15.92 21.57) rotate(-17.13)"/>
<path class="cls-2" d="M35.76,69.65a6.19,6.19,0,0,1-4.83-4.38,6,6,0,0,1-.67-12,.89.89,0,0,0,.91-.69,5.89,5.89,0,0,1,5.67-3.82c1.09,0,2.18-.06,3.27,0a34.34,34.34,0,0,0,13.28-1.86c5.6-1.83,11.31-3.38,17-5l.69-.22c.25-1.55.6-1.85,2.14-1.85h3.74a1.47,1.47,0,0,1,1.66,1.67c0,3.11,0,6.23,0,9.34v1c4.14,1.55,6,4,6,7.64,0,3.35-2.11,5.85-6,7.18v9c0,3,0,3-3,3h-2.8a1.5,1.5,0,0,1-1.63-1.34,1.05,1.05,0,0,0-.56-.67c-7.75-2.3-15.5-4.56-23.25-6.87-.67-.2-.81.16-1,.59C43.9,75.18,41.52,80,39.11,84.74a4.83,4.83,0,0,1-9-.73,4.89,4.89,0,0,1,.36-3.71C32.24,76.85,34,73.4,35.67,70,35.7,69.89,35.7,69.83,35.76,69.65ZM71.09,44.82,48.72,51.4V67.1l22.37,6.58Zm-25.4,7c-3.16,0-6.24-.07-9.31,0a2.85,2.85,0,0,0-2.64,2.91q-.06,4.53,0,9.06a2.89,2.89,0,0,0,2.83,2.93c3,.06,6,0,9,0,.05,0,.09-.08.15-.13ZM43.16,69.71c-1.21,0-2.33,0-3.44,0a1.15,1.15,0,0,0-.81.54Q36,76,33.1,81.84a1.76,1.76,0,0,0,.68,2.55,1.86,1.86,0,0,0,2.59-.9q3.38-6.69,6.71-13.41A1.63,1.63,0,0,0,43.16,69.71Zm31,5.94h1.43V42.85H74.14Zm4.51-20.52v8.21a4.29,4.29,0,0,0,2.95-4A4.38,4.38,0,0,0,78.65,55.13ZM30.72,56.28a3,3,0,0,0-3,3,2.93,2.93,0,0,0,3,2.85Z"/><path class="cls-3" d="M95,60.73c-1.9,0-3.79,0-5.69,0-1.11,0-1.74-.57-1.72-1.52s.64-1.44,1.69-1.44h11.58a1.49,1.49,0,1,1,0,3C98.91,60.74,97,60.73,95,60.73Z"/><path class="cls-3" d="M86.69,54.4a1.45,1.45,0,0,1-1.62-1.15,1.38,1.38,0,0,1,.86-1.68c1.22-.53,2.47-1,3.71-1.51l6.21-2.53c1.06-.43,1.94-.14,2.28.71s-.08,1.63-1.18,2.07l-9.5,3.86C87.16,54.28,86.86,54.35,86.69,54.4Z"/><path class="cls-3" d="M98.22,69.37c0,1.38-1,2.12-2,1.74C92.83,69.76,89.4,68.36,86,66.94a1.43,1.43,0,0,1-.75-2,1.44,1.44,0,0,1,1.88-.78c3.41,1.35,6.81,2.71,10.19,4.15C97.76,68.55,98,69.16,98.22,69.37Z"/><path class="cls-3" d="M82.78,68.74a7.73,7.73,0,0,1,1.27.75q3.24,3,6.43,6.11a1.51,1.51,0,1,1-2,2.2c-2.18-2-4.33-4.12-6.5-6.18a1.39,1.39,0,0,1-.42-1.76A5.08,5.08,0,0,1,82.78,68.74Z"/><path class="cls-3" d="M82.75,49.72a5.48,5.48,0,0,1-1.2-1.07,1.37,1.37,0,0,1,.37-1.77l4.53-4.32c.68-.64,1.34-1.29,2-1.92a1.51,1.51,0,0,1,2.23,0,1.46,1.46,0,0,1-.15,2.16Q87.29,46,83.94,49.09A5.33,5.33,0,0,1,82.75,49.72Z"/>
</g>
</g>
</svg>