<svg xmlns="http://www.w3.org/2000/svg" viewBox="0 0 127.27 127.27">
    <defs>
        <style>.cls-1{fill:#453163;}.cls-2{fill:#fff;}.cls-2,.cls-3{fill-rule:evenodd;}.cls-3{fill:#e8214b;}</style>
    </defs>
    <title>search_p_ico</title>
    <g id="Layer_2" data-name="Layer 2">
        <g id="Layer_1-2" data-name="Layer 1">
        <circle class="cls-1" cx="63.64" cy="63.64" r="63.64" transform="translate(-11 13.35) rotate(-11.03)"/>
        <path class="cls-2" d="M60.92,25.13A16.75,16.75,0,1,1,44.11,41.76,16.72,16.72,0,0,1,60.92,25.13Z"/><path class="cls-2" d="M60.17,61.14a19.22,19.22,0,0,0,13.4,31H39.65c-1.83,0-2.72-.92-2.72-2.77,0-3.66,0-7.32,0-11a17.37,17.37,0,0,1,14.37-17,83.72,83.72,0,0,1,8.84-.47Z"/><path class="cls-3" d="M86.93,81.37l5.21,5.17c.5.49,1,1,1.47,1.49a2.39,2.39,0,1,1-3.41,3.34c-2-2-4-3.94-5.92-5.92a8.68,8.68,0,0,1-.62-.79,14.45,14.45,0,0,1-12.93,2A13.94,13.94,0,0,1,63,80.51a14.37,14.37,0,0,1,21.4-18.59A14.48,14.48,0,0,1,86.93,81.37ZM65.65,73a9.57,9.57,0,1,0,9.63-9.56A9.63,9.63,0,0,0,65.65,73Z"/>
        </g>
    </g>
</svg>