<svg xmlns="http://www.w3.org/2000/svg" viewBox="0 0 127.27 127.27">
<defs>
<style>.cls-1{fill:#453163;}.cls-2{fill:#f7fbff;fill-rule:evenodd;}</style>
</defs>
<title>search_ico</title>
<g id="Layer_2" data-name="Layer 2">
<g id="Layer_1-2" data-name="Layer 1">
<circle class="cls-1" cx="63.64" cy="63.63" r="63.64"/>
<path class="cls-2" d="M75.59,71.3l6.67,6.62c.63.63,1.28,1.24,1.88,1.9a3.06,3.06,0,1,1-4.37,4.27c-2.54-2.51-5-5-7.57-7.57a10.93,10.93,0,0,1-.79-1C66.16,79,60.7,79.89,54.87,78A17.86,17.86,0,0,1,45,70.2,18.39,18.39,0,0,1,72.34,46.41,18.53,18.53,0,0,1,75.59,71.3ZM48.36,60.55A12.25,12.25,0,1,0,60.69,48.33,12.34,12.34,0,0,0,48.36,60.55Z"/>
</g>
</g>
</svg>